M48
; DRILL file {KiCad (6.0.7)} date Sat Nov 12 20:07:47 2022
; FORMAT={-:-/ absolute / metric / decimal}
; #@! TF.CreationDate,2022-11-12T20:07:47-06:00
; #@! TF.GenerationSoftware,Kicad,Pcbnew,(6.0.7)
; #@! TF.FileFunction,Plated,1,2,PTH
FMAT,2
METRIC
; #@! TA.AperFunction,Plated,PTH,ViaDrill
T1C0.400
; #@! TA.AperFunction,Plated,PTH,ComponentDrill
T2C0.500
; #@! TA.AperFunction,Plated,PTH,ComponentDrill
T3C0.800
; #@! TA.AperFunction,Plated,PTH,ComponentDrill
T4C0.900
; #@! TA.AperFunction,Plated,PTH,ComponentDrill
T5C0.950
; #@! TA.AperFunction,Plated,PTH,ComponentDrill
T6C1.000
; #@! TA.AperFunction,Plated,PTH,ComponentDrill
T7C1.100
; #@! TA.AperFunction,Plated,PTH,ComponentDrill
T8C1.200
; #@! TA.AperFunction,Plated,PTH,ComponentDrill
T9C2.300
; #@! TA.AperFunction,Plated,PTH,ComponentDrill
T10C2.500
; #@! TA.AperFunction,Plated,PTH,ComponentDrill
T11C5.000
%
G90
G05
T1
X91.186Y-78.769
X91.44Y-73.689
X95.758Y-76.708
X96.012Y-71.12
X97.028Y-76.708
X98.552Y-75.692
X100.203Y-80.665
X114.3Y-68.834
X114.554Y-79.248
X121.825Y-45.72
X126.238Y-55.372
X126.238Y-58.166
X127.0Y-45.72
X132.08Y-57.658
X133.096Y-65.024
X133.35Y-59.436
X133.35Y-62.738
X134.62Y-45.72
X137.16Y-45.72
X139.7Y-45.72
X142.335Y-45.72
X146.304Y-70.866
X147.32Y-105.156
X150.618Y-97.032
X151.035Y-89.503
X151.13Y-105.664
X151.13Y-109.22
X151.479Y-79.153
X152.019Y-99.695
X156.464Y-105.664
X157.734Y-98.298
X157.952Y-93.507
X161.29Y-113.792
X161.798Y-110.49
X186.69Y-80.264
X186.69Y-95.25
X186.69Y-108.204
X186.69Y-109.728
X186.944Y-78.74
X186.944Y-93.726
X190.722Y-95.536
X190.738Y-81.042
X190.738Y-110.49
X204.47Y-117.856
X204.724Y-114.046
T2
X102.108Y-86.36
X102.108Y-88.9
T3
X74.805Y-84.74
X74.805Y-92.36
X79.632Y-84.74
X79.632Y-92.36
X81.042Y-77.724
X83.042Y-77.724
X84.457Y-84.74
X84.457Y-92.36
X86.884Y-80.264
X88.646Y-112.562
X88.646Y-115.062
X88.884Y-80.264
X92.71Y-46.736
X92.71Y-51.562
X92.71Y-56.388
X92.71Y-62.992
X92.71Y-68.834
X94.234Y-37.084
X94.996Y-112.562
X94.996Y-115.062
X95.25Y-89.662
X95.27Y-85.598
X96.774Y-34.544
X97.75Y-89.662
X97.77Y-85.598
X99.314Y-37.084
X100.33Y-46.736
X100.33Y-51.562
X100.33Y-56.388
X100.33Y-62.992
X100.33Y-68.834
X107.208Y-71.12
X109.708Y-71.12
X161.036Y-77.287
X161.036Y-82.113
X161.036Y-86.939
X161.036Y-91.765
X161.036Y-96.591
X161.036Y-101.417
X161.544Y-116.84
X161.544Y-121.666
X161.544Y-126.492
X168.656Y-77.287
X168.656Y-82.113
X168.656Y-86.939
X168.656Y-91.765
X168.656Y-96.591
X168.656Y-101.417
X169.164Y-116.84
X169.164Y-121.666
X169.164Y-126.492
X169.164Y-130.81
X169.164Y-138.43
X173.228Y-96.591
X173.244Y-82.113
X173.244Y-111.069
X173.736Y-130.81
X173.736Y-138.43
X175.228Y-96.591
X175.244Y-82.113
X175.244Y-111.069
X178.054Y-72.207
X178.308Y-86.939
X178.308Y-101.925
X178.562Y-116.84
X178.562Y-121.666
X178.562Y-126.492
X178.562Y-130.81
X178.562Y-138.43
X185.674Y-72.207
X185.928Y-86.939
X185.928Y-101.925
X186.182Y-116.84
X186.182Y-121.666
X186.182Y-126.492
X188.722Y-82.875
X188.722Y-90.241
X188.738Y-75.509
X188.738Y-97.607
X188.738Y-104.973
X188.738Y-112.339
X190.722Y-82.875
X190.722Y-90.241
X190.738Y-75.509
X190.738Y-97.607
X190.738Y-104.973
X190.738Y-112.339
X193.548Y-55.118
X193.548Y-60.96
X194.564Y-77.541
X194.564Y-84.145
X194.564Y-90.749
X194.564Y-97.353
X194.564Y-103.957
X194.564Y-110.561
X201.168Y-55.118
X201.168Y-60.96
X202.184Y-77.541
X202.184Y-84.145
X202.184Y-90.749
X202.184Y-97.353
X202.184Y-103.957
X202.184Y-110.561
T4
X74.292Y-62.642
X74.292Y-70.262
X74.292Y-77.882
X76.832Y-62.642
X76.832Y-70.262
X76.832Y-77.882
T5
X81.879Y-49.962
X81.879Y-52.462
X83.879Y-49.962
X83.879Y-52.462
T6
X88.671Y-101.321
X91.211Y-101.321
X93.751Y-101.321
X96.291Y-101.321
X98.831Y-101.321
X101.371Y-101.321
X107.95Y-75.438
X107.95Y-77.978
X107.95Y-80.518
X107.95Y-83.058
X107.95Y-85.598
X107.95Y-88.138
X107.95Y-90.678
X107.95Y-93.218
X107.95Y-95.758
X107.95Y-98.298
X107.95Y-100.838
X107.95Y-103.378
X110.49Y-75.438
X110.49Y-77.978
X110.49Y-80.518
X110.49Y-83.058
X110.49Y-85.598
X110.49Y-88.138
X110.49Y-90.678
X110.49Y-93.218
X110.49Y-95.758
X110.49Y-98.298
X110.49Y-100.838
X110.49Y-103.378
X113.03Y-72.898
X113.03Y-75.438
X113.03Y-103.378
X113.03Y-105.918
X115.57Y-72.898
X115.57Y-75.438
X115.57Y-103.378
X115.57Y-105.918
X118.11Y-72.898
X118.11Y-75.438
X118.11Y-103.378
X118.11Y-105.918
X120.65Y-72.898
X120.65Y-75.438
X120.65Y-103.378
X120.65Y-105.918
X123.19Y-72.898
X123.19Y-75.438
X123.19Y-103.378
X123.19Y-105.918
X125.73Y-72.898
X125.73Y-75.438
X125.73Y-103.378
X125.73Y-105.918
X128.27Y-72.898
X128.27Y-75.438
X128.27Y-103.378
X128.27Y-105.918
X130.81Y-72.898
X130.81Y-75.438
X130.81Y-103.378
X130.81Y-105.918
X133.35Y-72.898
X133.35Y-75.438
X133.35Y-103.378
X133.35Y-105.918
X135.89Y-72.898
X135.89Y-75.438
X135.89Y-103.378
X135.89Y-105.918
X138.43Y-72.898
X138.43Y-75.438
X138.43Y-103.378
X138.43Y-105.918
X140.97Y-72.898
X140.97Y-75.438
X140.97Y-103.378
X140.97Y-105.918
X143.51Y-72.898
X143.51Y-75.438
X143.51Y-103.378
X143.51Y-105.918
X146.05Y-75.438
X146.05Y-77.978
X146.05Y-80.518
X146.05Y-83.058
X146.05Y-85.598
X146.05Y-88.138
X146.05Y-90.678
X146.05Y-93.218
X146.05Y-95.758
X146.05Y-98.298
X146.05Y-100.838
X146.05Y-103.378
X148.59Y-75.438
X148.59Y-77.978
X148.59Y-80.518
X148.59Y-83.058
X148.59Y-85.598
X148.59Y-88.138
X148.59Y-90.678
X148.59Y-93.218
X148.59Y-95.758
X148.59Y-98.298
X148.59Y-100.838
X148.59Y-103.378
X207.01Y-61.722
X207.249Y-55.118
X209.55Y-61.722
X209.789Y-55.118
X210.312Y-120.142
X210.312Y-122.682
X210.312Y-125.222
X212.09Y-61.722
X212.329Y-55.118
T7
X89.408Y-120.213
X91.948Y-120.213
X94.488Y-120.213
X133.656Y-121.448
X133.656Y-125.948
X140.156Y-121.448
X140.156Y-125.948
X206.248Y-77.541
X206.248Y-84.145
X206.248Y-90.678
X206.248Y-97.282
X206.248Y-103.886
X206.248Y-110.49
X208.788Y-77.541
X208.788Y-84.145
X208.788Y-90.678
X208.788Y-97.282
X208.788Y-103.886
X208.788Y-110.49
X211.328Y-77.541
X211.328Y-84.145
X211.328Y-90.678
X211.328Y-97.282
X211.328Y-103.886
X211.328Y-110.49
T8
X114.05Y-35.188
X116.59Y-35.188
X119.13Y-35.188
X121.67Y-35.188
X124.21Y-35.188
X126.75Y-35.188
X129.29Y-35.188
X131.83Y-35.188
X134.37Y-35.188
X136.91Y-35.188
X139.45Y-35.188
X141.99Y-35.188
X144.53Y-35.188
X147.07Y-35.188
X149.61Y-35.188
X152.15Y-35.188
T9
X79.019Y-45.212
X79.019Y-57.212
T10
X108.551Y-35.188
X108.551Y-66.189
X183.549Y-66.189
X183.55Y-35.188
T11
X73.406Y-35.052
X73.406Y-135.382
X212.598Y-35.052
X212.598Y-135.382
T6
G00X75.871Y-99.754
M15
G01X75.871Y-101.954
M16
G05
G00X80.371Y-105.654
M15
G01X78.171Y-105.654
M16
G05
G00X82.171Y-99.554
M15
G01X82.171Y-102.154
M16
G05
T0
M30
